<?xml version="1.0" encoding="UTF-8"?><svg id="katman_1" xmlns="http://www.w3.org/2000/svg" xmlns:xlink="http://www.w3.org/1999/xlink" viewBox="0 0 512 512"><defs><style>.cls-1{fill:url(#Adsız_degrade_308);}.cls-2{fill:url(#Adsız_degrade_167);}.cls-3{fill:url(#Adsız_degrade_674);}.cls-4{fill:url(#Adsız_degrade_73);}.cls-5,.cls-6{fill:#fff;}.cls-6{font-family:Gilroy-ExtraBold, Gilroy;font-size:68.11px;font-weight:700;}.cls-7{letter-spacing:0em;}</style><linearGradient id="Adsız_degrade_674" x1="229.35" y1="288.91" x2="380.28" y2="288.91" gradientUnits="userSpaceOnUse"><stop offset="0" stop-color="#081a3f"/><stop offset=".13" stop-color="#091e48"/><stop offset=".35" stop-color="#0c2a61"/><stop offset=".5" stop-color="#103578"/><stop offset="1" stop-color="#1953b3"/></linearGradient><linearGradient id="Adsız_degrade_167" x1="131.72" y1="288.91" x2="223.11" y2="288.91" gradientUnits="userSpaceOnUse"><stop offset="0" stop-color="#f3944c"/><stop offset=".5" stop-color="#ed6d05"/><stop offset="1" stop-color="#d25917"/></linearGradient><linearGradient id="Adsız_degrade_73" x1="317" y1="211.73" x2="317" y2="71.14" gradientUnits="userSpaceOnUse"><stop offset="0" stop-color="#3a8e2e"/><stop offset="1" stop-color="#61ca42"/></linearGradient><linearGradient id="Adsız_degrade_308" x1="131.87" y1="152.66" x2="247.1" y2="152.66" gradientUnits="userSpaceOnUse"><stop offset="0" stop-color="#47c1f0"/><stop offset=".5" stop-color="#00a0e4"/><stop offset="1" stop-color="#008cd3"/></linearGradient></defs><text class="cls-6" transform="translate(130.34 436.42)"><tspan x="0" y="0">d</tspan><tspan class="cls-7" x="42.43" y="0">is</tspan><tspan x="91.33" y="0">iplan</tspan></text><path class="cls-3" d="M373.46,218.01l-45.91.09v-.09h-93.44c-2.63,0-4.76,2.13-4.76,4.76v87.4h.05l-.05,42.44c0,3.76,2.61,7.16,6.74,7.17l17.6.03c22.21.04,43.08-5.65,61.92-15.75,38.74-20.78,59.77-58.63,63.78-99.37.01-.11.02-.21.02-.32l.87-21.16c.04-.99-.18-2-.77-2.8-1.27-1.72-3.49-2.39-6.05-2.39Z"/><path class="cls-2" d="M160.2,218.05c-5.78,0-11.56-.02-17.34-.03-3.13,0-6.23,1.15-8.33,3.47-1.49,1.64-2.53,3.85-2.53,6.83-.57,58.73-.1,101.61-.13,104.24-.31,27.24,18.05,27.24,22.16,27.23,0,0,40.61-.03,40.74-.03l17.34.03c3.13,0,6.23-1.15,8.33-3.47,1.49-1.64,2.53-3.85,2.53-6.83l.13-104.24c0-1.15-.17-2.3-.5-3.4l-.83-2.75c-.08-.23-.16-.47-.24-.7l-1.98-5.3c-.35-.94-.83-1.84-1.41-2.66l-4.35-6.16c-4.29-2.08-8.57-4.17-12.86-6.25-13.58.01-27.16.02-40.74.03Z"/><path class="cls-4" d="M380.27,184.71c-.46-9.28-2.14-23.32-8.25-39.11-3.8-9.82-17.55-43.84-53.81-62.71-7.93-4.12-21.12-9.7-39.03-11.58-.74-.08-1.5-.11-2.25-.12l-18.98-.05c-2.04,0-4.12,3.28-4.12,5.8l-.11,129.87c0,1.24.06,2.25.35,3.18l-.35.37c.24.22.49.4.73.55.14.27.3.54.5.81l.33-.39c.83.32,1.74.39,2.86.39l95.28-.1c14.79-.02,26.87-12.13,26.84-26.92h0Z"/><path class="cls-1" d="M217.86,212.48c1.34,0,2.63.57,3.53,1.56l4.84,5.34c4.28,4.73,11.52,13.69,13.35,14.67,1.36.73,2.81-2.02,3.56-2.9l2.82-3.31c.74-.86,1.14-1.96,1.14-3.09l-.16-139.08c0-7.26-5.31-14.29-11.76-14.31l-78.2-.21c-.31,0-.62.02-.93.08-14.28,2.62-24.48,15.89-24.18,32.12l.09,98.02c0,6.38,4.87,11.08,10.26,11.1l27.16.12"/><path class="cls-5" d="M198.9,245.37l-20.17-20.37c-3.91-3.95-6.38-8.84-6.69-14.48s1.38-10.93,4.77-15.15c7.92-9.83,22.36-10.77,31.7-2.31l19.31,18.94,12.25,12.3,23.24-24.09,38.36-39.61c3.55-3.67,7.5-6.42,12.59-7.47,7.34-1.52,14.91.74,20.05,6.27,3.7,3.98,5.62,9.09,5.85,14.56.26,6.08-2.22,11.74-6.38,16.08l-52.03,54.32-26.38,27.68c-5.18,5.43-12.88,7.35-20.07,5.67-4.35-1.02-7.97-3.33-11.08-6.49l-25.33-25.84Z"/></svg>