<?xml version="1.0" encoding="UTF-8"?><svg id="katman_1" xmlns="http://www.w3.org/2000/svg" xmlns:xlink="http://www.w3.org/1999/xlink" viewBox="0 0 512 512"><defs><style>.cls-1{fill:url(#Adsız_degrade_308);}.cls-2{fill:url(#Adsız_degrade_167);}.cls-3{fill:url(#Adsız_degrade_674);}.cls-4{fill:url(#Adsız_degrade_73);}.cls-5,.cls-6{fill:#fff;}.cls-6{font-family:Gilroy-ExtraBold, Gilroy;font-size:117px;font-weight:700;}.cls-7{letter-spacing:0em;}</style><linearGradient id="Adsız_degrade_674" x1="65.54" y1="278.41" x2="111.61" y2="278.41" gradientUnits="userSpaceOnUse"><stop offset="0" stop-color="#081a3f"/><stop offset=".13" stop-color="#091e48"/><stop offset=".35" stop-color="#0c2a61"/><stop offset=".5" stop-color="#103578"/><stop offset="1" stop-color="#1953b3"/></linearGradient><linearGradient id="Adsız_degrade_167" x1="35.75" y1="278.41" x2="63.64" y2="278.41" gradientUnits="userSpaceOnUse"><stop offset="0" stop-color="#f3944c"/><stop offset=".5" stop-color="#ed6d05"/><stop offset="1" stop-color="#d25917"/></linearGradient><linearGradient id="Adsız_degrade_73" x1="92.3" y1="254.86" x2="92.3" y2="211.95" gradientUnits="userSpaceOnUse"><stop offset="0" stop-color="#3a8e2e"/><stop offset="1" stop-color="#61ca42"/></linearGradient><linearGradient id="Adsız_degrade_308" x1="35.79" y1="236.83" x2="70.96" y2="236.83" gradientUnits="userSpaceOnUse"><stop offset="0" stop-color="#47c1f0"/><stop offset=".5" stop-color="#00a0e4"/><stop offset="1" stop-color="#008cd3"/></linearGradient></defs><path class="cls-3" d="M109.53,256.77l-14.01.03v-.03h-28.52c-.8,0-1.45.65-1.45,1.45v26.67h.02l-.02,12.95c0,1.15.8,2.19,2.06,2.19h5.37c6.78.02,13.15-1.71,18.9-4.8,11.82-6.34,18.24-17.89,19.47-30.33,0-.03,0-.07,0-.1l.27-6.46c.01-.3-.06-.61-.23-.85-.39-.52-1.07-.73-1.85-.73Z"/><path class="cls-2" d="M44.44,256.79c-1.76,0-3.53,0-5.29,0-.96,0-1.9.35-2.54,1.06-.45.5-.77,1.17-.77,2.09-.17,17.93-.03,31.01-.04,31.82-.09,8.31,5.51,8.31,6.76,8.31,0,0,12.39,0,12.44,0h5.29c.96,0,1.9-.34,2.54-1.05.45-.5.77-1.17.77-2.09l.04-31.82c0-.35-.05-.7-.15-1.04l-.25-.84c-.02-.07-.05-.14-.07-.21l-.6-1.62c-.11-.29-.25-.56-.43-.81l-1.33-1.88c-1.31-.64-2.62-1.27-3.92-1.91-4.15,0-8.29,0-12.44,0Z"/><path class="cls-4" d="M111.61,246.61c-.14-2.83-.65-7.12-2.52-11.94-1.16-3-5.36-13.38-16.42-19.14-2.42-1.26-6.45-2.96-11.91-3.53-.23-.02-.46-.03-.69-.04l-5.79-.02c-.62,0-1.26,1-1.26,1.77l-.03,39.64c0,.38.02.69.11.97l-.11.11c.07.07.15.12.22.17.04.08.09.17.15.25l.1-.12c.25.1.53.12.87.12l29.08-.03c4.51,0,8.2-3.7,8.19-8.22h0Z"/><path class="cls-1" d="M62.04,255.09c.41,0,.8.17,1.08.48l1.48,1.63c1.31,1.44,3.52,4.18,4.07,4.48.42.22.86-.62,1.09-.89l.86-1.01c.22-.26.35-.6.35-.94l-.05-42.45c0-2.22-1.62-4.36-3.59-4.37l-23.87-.07c-.09,0-.19,0-.28.02-4.36.8-7.47,4.85-7.38,9.8l.03,29.92c0,1.95,1.49,3.38,3.13,3.39l8.29.04"/><path class="cls-5" d="M56.25,265.12l-6.16-6.22c-1.19-1.2-1.95-2.7-2.04-4.42s.42-3.34,1.46-4.62c2.42-3,6.83-3.29,9.68-.7l5.89,5.78,3.74,3.75,7.09-7.35,11.71-12.09c1.08-1.12,2.29-1.96,3.84-2.28,2.24-.47,4.55.22,6.12,1.92,1.13,1.22,1.71,2.78,1.79,4.45.08,1.85-.68,3.58-1.95,4.91l-15.88,16.58-8.05,8.45c-1.58,1.66-3.93,2.24-6.13,1.73-1.33-.31-2.43-1.02-3.38-1.98l-7.73-7.89Z"/><text class="cls-6" transform="translate(116.47 298.3)"><tspan class="cls-7" x="0" y="0">is</tspan><tspan x="84.01" y="0">iplan</tspan></text></svg>