<?xml version="1.0" encoding="UTF-8"?><svg id="katman_1" xmlns="http://www.w3.org/2000/svg" xmlns:xlink="http://www.w3.org/1999/xlink" viewBox="0 0 512 512"><defs><style>.cls-1{fill:url(#Adsız_degrade_73);}.cls-1,.cls-2,.cls-3,.cls-4{stroke:#fff;stroke-miterlimit:10;stroke-width:4px;}.cls-5{fill:#fff;}.cls-2{fill:url(#Adsız_degrade_674);}.cls-3{fill:url(#Adsız_degrade_308);}.cls-4{fill:url(#Adsız_degrade_167);}</style><linearGradient id="Adsız_degrade_674" x1="210.07" y1="382.53" x2="470.15" y2="382.53" gradientUnits="userSpaceOnUse"><stop offset="0" stop-color="#081a3f"/><stop offset=".13" stop-color="#091e48"/><stop offset=".35" stop-color="#0c2a61"/><stop offset=".5" stop-color="#103578"/><stop offset="1" stop-color="#1953b3"/></linearGradient><linearGradient id="Adsız_degrade_167" x1="41.85" y1="382.53" x2="199.32" y2="382.53" gradientUnits="userSpaceOnUse"><stop offset="0" stop-color="#f3944c"/><stop offset=".5" stop-color="#ed6d05"/><stop offset="1" stop-color="#d25917"/></linearGradient><linearGradient id="Adsız_degrade_73" x1="361.11" y1="249.55" x2="361.11" y2="7.3" gradientUnits="userSpaceOnUse"><stop offset="0" stop-color="#3a8e2e"/><stop offset="1" stop-color="#61ca42"/></linearGradient><linearGradient id="Adsız_degrade_308" x1="42.11" y1="147.76" x2="240.66" y2="147.76" gradientUnits="userSpaceOnUse"><stop offset="0" stop-color="#47c1f0"/><stop offset=".5" stop-color="#00a0e4"/><stop offset="1" stop-color="#008cd3"/></linearGradient></defs><path class="cls-2" d="M458.38,260.37l-79.1.15v-.15h-161.01c-4.53,0-8.21,3.67-8.21,8.21v150.59h.09l-.09,73.13c0,6.48,4.5,12.34,11.61,12.35l30.32.05c38.27.06,74.23-9.73,106.7-27.14,66.75-35.8,102.99-101.02,109.9-171.23.02-.18.03-.37.04-.55l1.5-36.47c.07-1.71-.31-3.45-1.33-4.82-2.19-2.96-6.02-4.12-10.43-4.11Z"/><path class="cls-4" d="M90.93,260.44c-9.96-.02-19.92-.03-29.87-.05-5.39,0-10.74,1.98-14.36,5.98-2.57,2.83-4.35,6.63-4.36,11.77-.97,101.2-.17,175.08-.22,179.62-.53,46.93,31.11,46.93,38.18,46.91,0,0,69.97-.06,70.21-.06l29.87.05c5.39,0,10.74-1.98,14.36-5.98,2.57-2.83,4.35-6.63,4.36-11.77l.22-179.62c0-1.99-.29-3.96-.86-5.86l-1.44-4.74c-.14-.4-.27-.8-.41-1.2l-3.4-9.13c-.61-1.63-1.42-3.17-2.43-4.59l-7.5-10.61c-7.38-3.59-14.77-7.18-22.15-10.77-23.4.02-46.8.04-70.21.06Z"/><path class="cls-1" d="M470.13,202.98c-.78-16-3.69-40.19-14.21-67.38-6.54-16.92-30.23-75.54-92.72-108.06-13.66-7.11-36.39-16.72-67.24-19.95-1.28-.13-2.58-.2-3.87-.2l-32.71-.09c-3.51,0-7.09,5.65-7.1,10l-.19,223.78c0,2.14.11,3.88.61,5.47l-.61.63c.42.38.84.68,1.26.95.24.47.52.94.86,1.4l.57-.67c1.44.55,3,.68,4.93.67l164.18-.17c25.49-.03,46.3-20.9,46.24-46.39h0Z"/><path class="cls-3" d="M190.28,250.84c2.32,0,4.53.98,6.08,2.7l8.34,9.2c7.38,8.15,19.85,23.59,23,25.27,2.35,1.25,4.84-3.47,6.14-5l4.86-5.71c1.27-1.49,1.96-3.38,1.96-5.33l-.27-239.64c-.01-12.52-9.14-24.62-20.26-24.65l-134.74-.37c-.54,0-1.07.04-1.6.14-24.61,4.52-42.17,27.37-41.67,55.34l.16,168.9c.01,10.99,8.4,19.09,17.67,19.13l52.69.23"/><path class="cls-5" d="M157.61,307.5l-34.75-35.1c-6.73-6.8-10.99-15.23-11.53-24.95-.53-9.43,2.37-18.83,8.23-26.1,13.64-16.95,38.54-18.55,54.62-3.98l33.28,32.64,21.11,21.19,40.05-41.51,66.11-68.25c6.12-6.32,12.93-11.06,21.69-12.88,12.65-2.63,25.69,1.27,34.55,10.81,6.37,6.86,9.68,15.67,10.08,25.1.44,10.47-3.83,20.22-10.99,27.7l-89.65,93.6-45.46,47.69c-8.92,9.36-22.2,12.67-34.58,9.77-7.5-1.76-13.74-5.73-19.08-11.19l-43.65-44.53Z"/></svg>